<svg xmlns="http://www.w3.org/2000/svg" width="48" height="48"><path fill="#fff" d="M0 44c0 2.21 1.79 4 4 4h40c2.21 0 4-1.79 4-4V4c0-2.21-1.79-4-4-4H4C1.79 0 0 1.79 0 4z"/><path fill="#07f" d="M8.753 4.775A1.622 1.622 0 0 0 7.52 7.518l2.758 2.97 2.833 3.048v8.63a1.622 1.622 0 1 0 3.25 0v-8.592l1.44-1.437 4.57-4.577a1.622 1.622 0 1 0-2.29-2.295L15.5 9.843l-.722.72-2.12-2.287-2.76-2.966a1.622 1.622 0 0 0-1.146-.535zm29.126.015a1.622 1.622 0 0 0-.12.007l-11.12.927a1.622 1.622 0 1 0 .27 3.232l2.88-.24v13.45a1.622 1.622 0 1 0 3.24 0V8.446l5-.417a1.622 1.622 0 0 0-.16-3.24z"/><path fill="#02b" d="M10.055 33.566q0-1.826-.467-2.626-.445-.823-1.69-.823-.445 0-.98.065-.533.065-.8.11v9.39h-2.69V28.426q.778-.222 2.023-.423 1.27-.2 2.67-.2 1.2 0 1.96.314.78.316 1.29.825.25-.176.63-.38.38-.194.85-.352.47-.176.98-.287.53-.11 1.07-.11 1.358 0 2.225.397.89.38 1.38 1.094.51.69.69 1.692.2.978.2 2.157v6.543h-2.7V33.58q0-1.826-.444-2.625-.445-.825-1.713-.825-.648 0-1.226.223-.58.2-.867.398.17.56.24 1.19.07.63.07 1.34v6.42h-2.69zm19.9.354q0-1.8-.822-2.802-.806-1-2.604-1-.38 0-.81.036-.4.02-.81.13v6.647q.35.25.93.47.6.21 1.27.21 1.46 0 2.13-1 .69-1 .69-2.69zm2.76-.044q0 1.334-.357 2.446-.334 1.113-.982 1.913-.65.797-1.622 1.242-.955.445-2.178.445-.825 0-1.52-.204-.695-.204-1.14-.445v4.513H22.23V28.422q.82-.222 2.02-.422 1.2-.2 2.536-.2 1.374 0 2.465.425 1.09.42 1.85 1.223.78.78 1.18 1.91.43 1.113.43 2.512zm5.874 6.14q-.61 0-1.25-.09-.63-.067-1.2-.2-.56-.112-1.03-.245-.47-.15-.72-.28l.532-2.29q.467.23 1.356.51.89.27 2.204.27 1.758 0 2.537-.67.78-.68.78-1.82 0-.73-.31-1.22-.29-.48-.827-.78-.514-.303-1.203-.414-.665-.13-1.42-.13h-.91v-2.18h1.11q.51 0 1.023-.084.534-.11.957-.356.428-.27.69-.69.27-.42.27-1.09 0-.54-.2-.917-.2-.38-.532-.627-.31-.245-.734-.357-.42-.11-.89-.11-1 0-1.78.31-.776.29-1.376.67l-.98-2q.312-.2.757-.424.443-.224.98-.424.553-.2 1.175-.312.62-.13 1.31-.13 1.29 0 2.223.315.938.313 1.538.89.627.557.916 1.335.31.756.31 1.67 0 1.063-.6 1.91-.58.844-1.513 1.29 1.2.42 1.98 1.4.8.98.8 2.512 0 1.02-.355 1.91-.352.868-1.09 1.51-.73.625-1.864 1-1.11.36-2.67.36z"/></svg>
